<svg enable-background="new 0 0 300 300" height="300" viewBox="0 0 300 300" width="300" xmlns="http://www.w3.org/2000/svg"><path d="m255.147 22.642v238.199c0 11.406-9.194 20.648-20.537 20.648h-29.21c-.142.079-.316.126-.49.126h-158.61c-.695 0-1.264-.711-1.264-1.58v-276.461c0-.869.569-1.58 1.264-1.58h188.31c11.343 0 20.537 9.242 20.537 20.648z" fill="#dbba97"/><path d="m45.036 100.73h209.716v86.493h-209.716z" fill="#ed6e46"/><path d="m223.551 2.257h12.638v279.16h-12.638z" fill="#60432d"/><path d="m88.217 296.36-8.82-1.58-8.031 1.58v-14.745h16.851z" fill="#60432d"/><g fill="#fff"><path d="m70 124.363c0-.581.249-.83.83-.83h4.354c1.846 0 4.936.539 4.936 4.541 0 4.003-3.609 4.541-4.728 4.541h-2.198v4.811c0 .436-.374.664-1.244.664h-.705c-.872 0-1.244-.228-1.244-.664v-13.063zm5.04 5.517c.788 0 1.804-.311 1.804-1.804s-1.016-1.825-1.804-1.825h-1.846v3.629z"/><path d="m86.298 127.039c3.298 0 5.019 1.97 5.019 5.578 0 3.609-1.721 5.599-5.019 5.599s-5.04-1.991-5.04-5.599 1.742-5.578 5.04-5.578zm1.907 5.578c0-2.073-.58-3.152-1.907-3.152s-1.928 1.078-1.928 3.152.601 3.173 1.928 3.173 1.907-1.099 1.907-3.173z"/><path d="m98.386 127.039c1.473 0 3.443.477 3.443 1.431 0 .394-.747 1.596-1.1 1.596-.083 0-.207-.062-.373-.145-.373-.186-.933-.456-1.804-.456-1.659 0-2.343 1.037-2.343 3.152 0 2.136.642 3.173 2.219 3.173.974 0 1.638-.29 2.032-.477.165-.062.29-.125.373-.125.457 0 1.079 1.161 1.079 1.576 0 1.161-2.944 1.452-3.63 1.452-3.546 0-5.226-1.804-5.226-5.516 0-3.691 1.619-5.661 5.33-5.661z"/><path d="m103.611 123.078c0-.435.373-.664 1.243-.664h.581c.87 0 1.244.228 1.244.664v8.212l.083.021 2.509-3.753c.249-.353.664-.394 1.265-.394h.767c.789 0 1.162.125 1.162.311 0 .104-.063.249-.186.415l-2.883 4.106 3.38 5.35c.104.186.165.311.165.435 0 .187-.373.311-1.182.311h-.872c-.601 0-1.057-.083-1.244-.394l-2.882-4.77-.083.021v4.479c0 .436-.374.664-1.244.664h-.581c-.87 0-1.243-.228-1.243-.664v-14.35z"/><path d="m118.954 127.039c3.256 0 4.479 2.467 4.479 5.35 0 .352-.788 1.223-1.057 1.223h-5.289c.146 1.659 1.037 2.177 2.385 2.177 1.306 0 2.219-.643 2.509-.643.457 0 1.079 1.161 1.079 1.576 0 1.037-2.572 1.493-3.733 1.493-3.753 0-5.412-2.178-5.412-5.516-.001-4.084 2.074-5.66 5.039-5.66zm1.493 4.52c0-1.202-.456-2.094-1.493-2.094-.87 0-1.617.498-1.867 2.094z"/><path d="m125.816 129.631h-.331c-.436 0-.622-.311-.622-1.037v-.352c0-.726.186-1.037.622-1.037h.331l.27-1.97c.062-.435.435-.664 1.12-.664h.642c.726 0 1.037.228 1.037.664v1.97h1.016c.436 0 .622.311.622 1.037v.352c0 .726-.186 1.037-.622 1.037h-1.016v5.267c0 .622.207.891.747.891.186 0 .436-.083.559-.083.415 0 .643 1.327.643 1.493 0 .954-1.348 1.016-1.99 1.016-1.949 0-3.028-1.058-3.028-3.359z"/><path d="m144.147 123.368c1.825 0 4.438.58 4.438 1.451 0 .581-.83 1.949-1.348 1.949-.249 0-1.183-.664-3.152-.664-2.447 0-3.588 1.556-3.588 4.666s1.161 4.728 3.546 4.728c.58 0 1.058-.041 1.617-.145v-2.634h-1.825c-.436 0-.622-.311-.622-1.036v-.664c0-.726.186-1.037.622-1.037h4.21c.58 0 .83.249.83.83v5.765c0 1.431-3.359 1.638-4.832 1.638-4.645 0-6.822-2.343-6.822-7.466 0-4.934 2.322-7.381 6.926-7.381z"/><path d="m151.445 127.826c0-.435.373-.664 1.244-.664h.58c.872 0 1.244.228 1.244.664v6.574c0 .809.332 1.286 1.244 1.286.849 0 1.41-.725 1.659-1.202v-6.657c0-.435.373-.664 1.243-.664h.581c.87 0 1.243.228 1.243.664v6.574c0 2.136.249 2.572.249 3.007 0 .498-1.804.664-2.322.664-.664 0-.705-.871-.83-1.431-.601.788-1.742 1.576-3.09 1.576-2.074 0-3.048-1.058-3.048-3.359v-7.032z"/><path d="m162.993 124.757v-1.68c0-.435.373-.664 1.244-.664h.58c.872 0 1.244.228 1.244.664v1.68c0 .436-.373.664-1.244.664h-.58c-.871 0-1.244-.228-1.244-.664zm0 3.069c0-.435.373-.664 1.244-.664h.58c.872 0 1.244.228 1.244.664v9.601c0 .436-.373.664-1.244.664h-.58c-.872 0-1.244-.228-1.244-.664z"/><path d="m168.135 132.617c0-3.38 1.577-5.578 4.377-5.578.974 0 1.679.332 2.115.643v-4.604c0-.435.373-.664 1.244-.664h.58c.87 0 1.244.228 1.244.664v11.322c0 2.136.248 2.572.248 3.007 0 .498-1.804.664-2.322.664-.663 0-.705-.871-.83-1.41-.477.892-1.493 1.556-2.779 1.556-2.238-.001-3.877-1.992-3.877-5.6zm6.492 1.866v-4.625c-.332-.186-.809-.394-1.452-.394-1.306 0-1.928 1.078-1.928 3.152 0 2.012.539 3.09 1.68 3.09.787.001 1.327-.58 1.7-1.223z"/><path d="m184.89 127.039c3.256 0 4.479 2.467 4.479 5.35 0 .352-.788 1.223-1.057 1.223h-5.289c.146 1.659 1.037 2.177 2.385 2.177 1.306 0 2.219-.643 2.509-.643.457 0 1.079 1.161 1.079 1.576 0 1.037-2.572 1.493-3.733 1.493-3.753 0-5.412-2.178-5.412-5.516-.001-4.084 2.073-5.66 5.039-5.66zm1.492 4.52c0-1.202-.456-2.094-1.493-2.094-.87 0-1.617.498-1.867 2.094z"/><path d="m196.728 129.631h-.331c-.436 0-.622-.311-.622-1.037v-.352c0-.726.186-1.037.622-1.037h.331l.27-1.97c.062-.435.435-.664 1.12-.664h.642c.726 0 1.037.228 1.037.664v1.97h1.016c.436 0 .622.311.622 1.037v.352c0 .726-.186 1.037-.622 1.037h-1.016v5.267c0 .622.207.891.747.891.186 0 .436-.083.559-.083.415 0 .643 1.327.643 1.493 0 .954-1.348 1.016-1.99 1.016-1.949 0-3.028-1.058-3.028-3.359z"/><path d="m208.133 127.039c3.298 0 5.019 1.97 5.019 5.578 0 3.609-1.721 5.599-5.019 5.599s-5.04-1.991-5.04-5.599c.001-3.608 1.743-5.578 5.04-5.578zm1.908 5.578c0-2.073-.58-3.152-1.907-3.152s-1.928 1.078-1.928 3.152.601 3.173 1.928 3.173 1.907-1.099 1.907-3.173z"/><path d="m86.804 149.224c-.041-.125-.041-.228-.041-.311 0-.332.394-.539 1.285-.539h.539c.809 0 1.285.207 1.389.643l1.556 6.677c.165.705.394 1.825.643 2.986.186-1.161.519-2.281.705-2.986l1.7-6.885c.083-.332.478-.436 1.141-.436h.788c.664 0 1.058.104 1.141.436l1.638 6.885c.186.788.457 1.97.705 3.131.27-1.14.519-2.343.705-3.131l1.617-6.677c.104-.436.581-.643 1.39-.643h.228c.891 0 1.285.207 1.285.539 0 .083-.021.186-.042.311l-3.379 13.313c-.084.29-.56.435-1.141.435h-1.514c-.581 0-1.079-.145-1.141-.435l-2.032-8.585-2.116 8.585c-.083.29-.559.435-1.14.435h-1.494c-.663 0-1.078-.145-1.141-.435z"/><path d="m106.419 155.736c0-2.074-.248-2.509-.248-2.924 0-.498 1.804-.664 2.322-.664.664 0 .705.83.83 1.348.436-.788 1.058-1.576 2.261-1.576 1.016 0 1.182.705 1.182 1.12 0 .394-.228 1.742-.642 1.742-.291 0-.56-.166-.975-.166-.851 0-1.41.622-1.659 1.037v6.656c0 .436-.373.664-1.243.664h-.581c-.87 0-1.244-.228-1.244-.664v-6.573z"/><path d="m113.946 149.639v-1.68c0-.435.373-.664 1.244-.664h.58c.872 0 1.244.228 1.244.664v1.68c0 .436-.373.664-1.244.664h-.58c-.871-.001-1.244-.229-1.244-.664zm0 3.069c0-.435.373-.664 1.244-.664h.58c.872 0 1.244.228 1.244.664v9.601c0 .436-.373.664-1.244.664h-.58c-.872 0-1.244-.228-1.244-.664z"/><path d="m119.814 154.512h-.331c-.436 0-.622-.311-.622-1.037v-.352c0-.726.186-1.037.622-1.037h.331l.27-1.97c.062-.435.435-.664 1.12-.664h.642c.726 0 1.037.228 1.037.664v1.97h1.016c.436 0 .622.311.622 1.037v.352c0 .726-.186 1.037-.622 1.037h-1.016v5.267c0 .622.207.891.747.891.186 0 .436-.083.56-.083.414 0 .642 1.327.642 1.493 0 .954-1.348 1.016-1.99 1.016-1.949 0-3.028-1.058-3.028-3.359z"/><path d="m126.533 149.639v-1.68c0-.435.373-.664 1.244-.664h.58c.872 0 1.244.228 1.244.664v1.68c0 .436-.373.664-1.244.664h-.58c-.872-.001-1.244-.229-1.244-.664zm0 3.069c0-.435.373-.664 1.244-.664h.58c.872 0 1.244.228 1.244.664v9.601c0 .436-.373.664-1.244.664h-.58c-.872 0-1.244-.228-1.244-.664z"/><path d="m132.089 155.736c0-2.074-.248-2.509-.248-2.924 0-.498 1.804-.664 2.322-.664.664 0 .705.83.83 1.348.601-.788 1.742-1.576 3.09-1.576 2.073 0 3.048 1.057 3.048 3.359v7.03c0 .436-.374.664-1.244.664h-.58c-.872 0-1.244-.228-1.244-.664v-6.574c0-.809-.332-1.286-1.244-1.286-.851 0-1.41.726-1.659 1.203v6.656c0 .436-.373.664-1.243.664h-.581c-.87 0-1.244-.228-1.244-.664v-6.572z"/><path d="m144.738 162.06.02-.083c-.58-.291-.891-.871-.891-1.556 0-.705.457-1.306 1.244-1.721-1.016-.56-1.68-1.556-1.68-3.09 0-2.675 1.991-3.691 4.459-3.691.559 0 1.099.062 1.596.165h3.338c.436 0 .622.311.622 1.037v.352c0 .685-.165.975-.498.975-.144 0-.705-.041-.891-.083l-.042.083c.188.249.332.767.332 1.161 0 2.593-1.867 3.671-4.23 3.671-.851 0-1.265.186-1.265.56 0 1.41 6.283-.125 6.283 3.961 0 2.136-2.136 3.525-5.349 3.525-3.339 0-4.936-.975-4.936-2.862 0-1.076.664-1.926 1.888-2.404zm3.276 2.841c1.431 0 2.136-.394 2.136-1.016 0-.643-.83-.871-3.194-1.036-.726.249-1.12.705-1.12 1.12.001.559.644.932 2.178.932zm1.431-9.29c0-1.036-.706-1.472-1.556-1.472-.851 0-1.556.436-1.556 1.472 0 1.037.705 1.452 1.556 1.452.85 0 1.556-.415 1.556-1.452z"/><path d="m160.392 159.427c.373 0 1.389.954 3.048.954.891 0 1.949-.27 1.949-1.514 0-2.447-5.993-1.493-5.993-6.367 0-3.048 2.488-4.251 4.915-4.251 2.198 0 3.732.767 3.732 1.451 0 .56-.643 1.804-1.141 1.804-.269 0-.912-.519-2.301-.519-1.617 0-1.928.746-1.928 1.223 0 2.364 5.993 1.41 5.993 6.283 0 3.443-2.426 4.604-4.686 4.604-3.152 0-4.873-1.12-4.873-1.825 0-.64.85-1.843 1.285-1.843z"/><path d="m169.204 149.203c-.041-.145-.083-.27-.083-.373 0-.29.394-.456 1.265-.456h.684c.601 0 1.078.145 1.223.601l3.027 9.705h.083l3.111-9.705c.146-.435.622-.601 1.223-.601h.643c.87 0 1.244.166 1.244.456 0 .104-.021.228-.063.373l-4.479 13.334c-.104.332-.56.435-1.162.435h-1.078c-.601 0-1.058-.104-1.162-.435z"/><path d="m189.67 148.25c1.825 0 4.438.58 4.438 1.451 0 .581-.83 1.949-1.348 1.949-.249 0-1.183-.664-3.152-.664-2.447 0-3.588 1.556-3.588 4.666s1.161 4.728 3.546 4.728c.58 0 1.058-.041 1.617-.145v-2.634h-1.825c-.436 0-.622-.311-.622-1.036v-.664c0-.726.186-1.037.622-1.037h4.21c.58 0 .83.249.83.83v5.765c0 1.431-3.359 1.638-4.832 1.638-4.645 0-6.822-2.343-6.822-7.466-.001-4.934 2.322-7.381 6.926-7.381z"/></g><path d="m175.171 245.976s16.027-15.109 16.97-21.394 9.534 18.75 5.657 24.983" style="fill:none;stroke:#7aa20d;stroke-width:1.5713;stroke-linecap:round;stroke-linejoin:round;stroke-miterlimit:10"/><path d="m191.607 223.99c-.276-1.25.083-2.658 1.185-4.047 2.299-2.899 4.849-3.607 8.389-3.67 0 0 4.547-.081 5.493-4.119-.588 2.51-1.147 4.969-2.01 7.412-1.402 3.969-4.606 9.978-9.794 7.82-1.808-.752-2.948-1.972-3.263-3.396z" style="fill:#7aa20d;stroke:#7aa20d;stroke-width:.8181;stroke-linecap:round;stroke-linejoin:round;stroke-miterlimit:10"/><path d="m197.794 250.764c.361-.025.742-.1 1.162-.236 1.75-.569 4.356-1.436 5.795.648 3.1 4.492 1.185 11.49-3.781 13.679-5.677 2.503-12.124-3.485-11.594-9.254.26-2.833 1.678-7.392 5.374-5.65 1.116.526 1.991.885 3.044.813z" fill="#ed6e46" stroke="#ed6e46" stroke-miterlimit="10" stroke-width="2.5141"/><path d="m175.412 247.417c.357.056.746.068 1.185.028 1.833-.166 4.566-.433 5.506 1.918 2.026 5.068-1.395 11.466-6.723 12.498-6.091 1.18-11.048-6.089-9.25-11.597.883-2.705 3.278-6.835 6.495-4.316.971.761 1.745 1.306 2.787 1.469z" fill="#ed6e46" stroke="#ed6e46" stroke-miterlimit="10" stroke-width="2.5141"/></svg>