<svg enable-background="new 0 0 224 40" height="40" viewBox="0 0 224 40" width="224" xmlns="http://www.w3.org/2000/svg"><path d="m4.848 16.489h1.987c.3.682.587 1.337.86 1.968.272.631.541 1.252.803 1.863s.523 1.221.784 1.828c.26.607.528 1.226.803 1.856h.025c.051-.118.104-.25.162-.394.057-.144.115-.292.174-.444s.118-.301.174-.444c.058-.144.109-.275.156-.394.376-.948.771-1.902 1.184-2.862.412-.961.82-1.953 1.222-2.978h1.923v.432c-.165-.004-.307.018-.425.066s-.216.129-.292.238c-.076.11-.13.257-.162.438-.031.183-.039.406-.022.674l.343 5.92c.008.152.015.298.019.436s.006.264.006.378l.946-.044v.564h-2.914v-.426c.203-.004.364-.041.482-.11.119-.07.208-.171.27-.302.061-.132.098-.292.111-.48s.013-.405 0-.65l-.336-5.547c-.025.063-.053.13-.083.2-.03.069-.059.143-.089.219l-2.926 7.224h-.386c-.284-.635-.569-1.27-.857-1.904s-.572-1.273-.854-1.917-.559-1.292-.832-1.945c-.272-.654-.536-1.317-.79-1.99l-.013.572c-.008.207-.016.445-.022.714-.006.27-.015.557-.025.861-.01.305-.02.623-.028.953s-.018.663-.026.997c-.008.335-.017.664-.025.988s-.015.632-.019.924c-.004.195-.008.388-.013.579-.004.19-.017.366-.038.527l.978-.051v.564h-2.482v-.426c.203-.004.362-.039.476-.104s.202-.151.263-.26c.062-.107.101-.232.118-.374s.03-.294.038-.454l.286-6.957-.933.032v-.558z" fill="#333"/><path d="m16.801 20.443c0-.215.063-.418.19-.609.127-.189.305-.356.533-.498s.5-.253.815-.333.659-.12 1.032-.12c.728 0 1.264.192 1.609.577s.516.997.511 1.835l-.013 2.92c0 .135-.003.271-.009.409-.007.138-.021.295-.042.473l.92-.051v.546h-1.86c-.025-.148-.044-.277-.057-.387s-.023-.227-.032-.35c-.292.292-.61.522-.956.691-.342.17-.707.254-1.092.254-.326 0-.61-.039-.854-.117s-.446-.188-.606-.326c-.161-.141-.281-.304-.362-.492s-.121-.391-.121-.606c0-.267.058-.51.175-.729.116-.221.272-.416.47-.588.196-.171.426-.319.688-.444s.541-.228.835-.308.594-.139.901-.175.606-.052.898-.048v-.812c0-.224-.013-.441-.038-.653s-.082-.404-.168-.577c-.086-.174-.222-.312-.406-.413-.184-.102-.396-.152-.638-.152-.14 0-.273.012-.4.035s-.252.062-.375.117-.234.127-.333.216c-.1.089-.181.194-.245.317.063.072.107.151.13.238s.035.17.035.251c0 .051-.011.108-.032.174s-.054.127-.099.185c-.044.057-.102.104-.171.14-.07.036-.164.054-.283.054-.169 0-.304-.062-.403-.188-.097-.127-.147-.278-.147-.456zm3.567 1.969c-.199.008-.405.026-.619.054-.213.027-.423.069-.628.127-.206.057-.399.13-.581.219s-.341.194-.476.317-.241.265-.317.426c-.076.16-.11.342-.102.545.004.161.035.302.092.423.057.12.131.22.222.298s.196.138.314.178.246.061.381.061c.173 0 .336-.017.489-.051s.297-.084.435-.149c.137-.065.271-.145.399-.237.129-.094.259-.201.391-.324z" fill="#333"/><path d="m29.185 24.214c0 .135-.003.271-.01.409-.006.138-.02.295-.041.473l.92-.051v.546h-1.86c-.021-.127-.038-.245-.051-.355s-.023-.218-.032-.324c-.25.271-.551.487-.905.648-.353.16-.748.24-1.184.24-.402 0-.773-.076-1.114-.229-.34-.152-.637-.37-.889-.653-.251-.283-.448-.627-.59-1.031s-.213-.858-.213-1.362c0-.528.083-1.017.251-1.463.167-.446.398-.831.695-1.155.296-.323.648-.575 1.057-.755.408-.18.854-.27 1.336-.27.144 0 .288.01.432.031s.282.049.416.082c.133.034.257.072.371.115.114.042.214.086.298.133l.006-1.777c0-.136.001-.267.003-.394s.014-.277.035-.45l-.92.051v-.547c.284 0 .519-.009.705-.028s.338-.045.457-.079.21-.071.276-.111c.065-.04.124-.083.174-.13h.375v8.436zm-2.691.946c.144 0 .29-.021.438-.063s.291-.102.428-.178c.138-.076.267-.166.388-.27.12-.104.229-.217.327-.34-.004-.105-.006-.218-.006-.337 0-.118 0-.245 0-.381l.006-3.744c-.208-.161-.434-.276-.679-.347-.246-.069-.497-.104-.755-.104-.326 0-.62.072-.882.216s-.485.348-.67.612c-.184.265-.318.566-.403.904-.084.339-.127.765-.127 1.276 0 .352.047.708.143 1.069.095.362.224.665.387.908s.362.434.597.571c.233.139.503.208.808.208z" fill="#333"/><path d="m36.91 21.757-4.577.076c-.004.5.034.954.114 1.361s.208.755.381 1.043.397.511.669.668c.273.156.6.234.981.234.203 0 .411-.027.622-.083.211-.055.416-.13.613-.227.196-.096.377-.21.542-.345.165-.134.303-.277.413-.431l.317.261c-.178.271-.384.5-.619.688-.234.188-.478.342-.729.46-.252.118-.505.204-.759.257s-.49.081-.71.081c-.449 0-.866-.08-1.254-.24-.387-.161-.722-.392-1.006-.692s-.507-.662-.67-1.085c-.163-.424-.244-.899-.244-1.429 0-.457.078-.894.235-1.311s.379-.786.667-1.108c.288-.321.633-.577 1.035-.768s.849-.285 1.339-.285c.36 0 .699.059 1.019.178.32.118.6.296.841.533.241.236.432.536.571.897.139.363.209.785.209 1.267zm-2.628-2.361c-.508 0-.927.148-1.257.446-.33.297-.548.779-.654 1.445h3.313c0-.228-.025-.454-.076-.68s-.132-.429-.245-.607c-.112-.18-.257-.325-.435-.437-.176-.111-.392-.167-.646-.167z" fill="#333"/><path d="m40.992 19.091h2.755v.387c-.195.009-.343.048-.444.118-.102.069-.168.166-.2.288-.031.123-.033.27-.003.438s.081.357.152.565l1.022 3.072c.999-2.963 1.542-4.586 1.631-4.869h.533l1.733 4.964c.889-2.577 1.364-3.943 1.425-4.098.062-.154.133-.28.213-.378l-.756.045v-.533h2.26v.387c-.225.014-.408.046-.551.099-.145.053-.264.123-.355.21-.094.087-.172.19-.232.311-.062.121-.119.26-.174.416l-1.874 5.116h-.521l-1.701-4.919-1.688 4.919h-.495l-1.702-4.989c-.097-.275-.172-.494-.226-.657-.053-.163-.09-.295-.111-.396l-.692.038v-.534z" fill="#333"/><path d="m52.666 20.653c0-.136.003-.267.009-.394.007-.127.021-.277.042-.451l-.921.051v-.545c.283 0 .519-.01.704-.029.187-.019.339-.045.457-.079.119-.034.211-.071.276-.111s.124-.083.175-.13h.375v5.25c0 .173-.003.326-.007.46-.004.133-.019.273-.044.422l.818-.038v.533h-2.653v-.387c.199 0 .351-.04.454-.118s.179-.187.225-.327c.047-.139.073-.307.08-.501.006-.194.01-.408.01-.642zm1.237-3.745c0 .105-.021.205-.061.299-.04.093-.092.174-.155.244-.063.069-.138.123-.223.162-.084.037-.173.057-.266.057-.094 0-.183-.02-.268-.057-.084-.039-.159-.093-.225-.162-.065-.07-.116-.151-.152-.244-.036-.094-.055-.193-.055-.299 0-.11.02-.213.058-.308.038-.096.09-.179.155-.251s.141-.128.226-.168.176-.061.272-.061c.098 0 .188.021.271.061.082.04.155.096.219.168s.113.155.149.251c.038.095.055.198.055.308z" fill="#333"/><path d="m55.199 19.091c.229-.004.436-.066.621-.188.187-.12.351-.271.492-.45s.262-.376.359-.587c.097-.212.173-.411.229-.598h.443c0 .348-.001.671-.003.972s-.003.584-.003.851h2.189v.508l-2.189.025c-.004.562-.006 1.043-.006 1.441 0 .397-.002.729-.004.996s-.003.478-.003.632-.001.271-.003.353c-.002.08-.004.132-.004.155s0 .037 0 .041c0 .296.017.558.048.784.032.227.086.417.162.571s.177.271.302.349.282.117.473.117c.225 0 .446-.067.666-.203.221-.135.415-.327.584-.577l.35.286c-.19.287-.38.513-.568.676s-.367.285-.536.368c-.169.082-.327.134-.473.155s-.274.031-.384.031c-.132 0-.266-.01-.403-.031s-.273-.062-.406-.124c-.134-.062-.259-.147-.375-.26s-.219-.257-.308-.435-.158-.395-.209-.648-.074-.554-.07-.9l.025-3.758-.996.006z" fill="#333"/><path d="m61.178 17.466c0-.136.001-.267.003-.394s.014-.277.035-.45l-.921.051v-.547c.284 0 .52-.009.708-.028s.342-.045.46-.079c.119-.034.212-.071.279-.111.068-.04.127-.083.178-.13h.375v3.961c.144-.118.301-.23.47-.337.169-.105.346-.196.53-.272s.372-.137.564-.181c.192-.045.382-.066.568-.066.377 0 .7.058.971.174s.492.294.664.533c.171.239.298.542.381.908.082.366.126.797.13 1.291l.013 2.426c0 .173-.002.326-.006.46-.005.133-.02.273-.045.422l.818-.038v.533h-2.652v-.387c.198 0 .35-.04.453-.118s.179-.187.226-.327c.047-.139.073-.307.079-.501.007-.194.01-.408.01-.642v-1.814c0-.75-.118-1.31-.355-1.68s-.613-.555-1.13-.555c-.148 0-.305.021-.47.062-.165.043-.32.1-.467.172-.146.072-.283.156-.412.254s-.242.203-.34.317v3.841c0 .173-.004.326-.013.46-.009.133-.025.273-.051.422l.819-.038v.533h-2.654v-.387c.199 0 .352-.04.457-.118.106-.078.184-.187.232-.327.049-.139.076-.307.082-.501.007-.194.01-.408.01-.642v-6.15z" fill="#333"/><path d="m131.047 17.466c0-.136.001-.267.003-.394s.014-.277.034-.45l-.92.051v-.547c.283 0 .52-.009.708-.028s.342-.045.46-.079.212-.071.279-.111.127-.083.178-.13h.375v3.878c.24-.24.527-.43.859-.567s.704-.206 1.114-.206c.415 0 .801.077 1.158.231s.669.374.934.66c.265.285.472.633.622 1.041s.225.866.225 1.374c0 .555-.094 1.054-.282 1.498s-.438.823-.749 1.137c-.311.312-.671.554-1.079.723-.408.17-.83.254-1.267.254-.147 0-.305-.011-.469-.034-.166-.023-.333-.065-.502-.127s-.334-.144-.495-.245-.309-.23-.444-.387l-.311.584h-.457zm2.691 2.057c-.288 0-.572.066-.852.2-.279.133-.52.312-.723.536v3.288c0 .347.042.632.127.854.084.223.198.398.342.527.145.129.309.218.492.267.185.049.376.072.574.072.313 0 .596-.066.848-.199.252-.134.466-.322.642-.565s.311-.534.406-.872c.095-.339.143-.714.143-1.124 0-.436-.041-.837-.124-1.203-.082-.366-.206-.68-.371-.942s-.372-.468-.622-.615c-.25-.15-.544-.224-.882-.224z" fill="#333"/><path d="m139.209 28.435c.047.021.096.031.146.031.076 0 .174-.032.295-.098.12-.065.242-.204.365-.416.109-.19.242-.475.396-.854s.326-.833.518-1.361c-1.469-3.145-2.243-4.812-2.324-5.002-.08-.191-.146-.358-.199-.502s-.096-.269-.127-.375c-.032-.105-.055-.194-.066-.266l-.629.031v-.533h2.691v.387l-.057.007c-.183.013-.321.053-.416.12-.096.068-.153.164-.175.289s-.009.288.038.489.641 1.499 1.783 3.894c.902-2.627 1.381-4.009 1.438-4.145s.112-.254.165-.355.103-.169.148-.203l-.895.051v-.533h2.037v.387c-.16.064-.299.146-.415.245s-.22.22-.308.361c-.09.142-.172.304-.248.485-.076.183-.696 1.895-1.859 5.136-.199.546-.381 1.031-.547 1.457-.164.425-.337.781-.517 1.069s-.377.507-.591.657-.464.226-.752.226c-.136 0-.263-.017-.381-.048-.118-.032-.223-.081-.311-.146-.09-.065-.159-.147-.21-.247s-.076-.215-.076-.346c0-.081.013-.159.038-.235s.062-.144.111-.203.107-.106.178-.143c.069-.036.146-.054.231-.054.102 0 .188.019.257.057.07.038.126.087.168.146.043.059.072.121.09.187.017.065.025.124.025.175 0 .025-.002.054-.004.086.003.032-.002.063-.011.092z" fill="#333"/><g fill="#ea8c8c"><path d="m152.253 15.018c-1.53.188-2.788 1.326-2.788 3.468 0 1.36.681 2.227.901 2.227.085 0 .102-.118.187-.118s.119.136.119.255c0 .577-.408 1.121-.833 1.121-.102 0-.204-.033-.289-.102-.425-.271-1.428-1.394-1.428-3.383 0-3.604 2.771-4.793 4.776-4.793.357 0 .681.306.681.714v11.27.51c.322-.051.629-.067.9-.085.799-.051.374 1.326-.221 1.343-.255 0-.476.018-.697.034-.102 1.955-.526 4.131-2.498 4.131-1.156 0-1.904-.867-1.904-2.006 0-1.717 1.53-2.652 3.094-3.11v-.188zm-.034 12.733c-1.122.34-1.733.969-1.733 1.818 0 .51.271.731.611.731.765 0 1.037-1.207 1.122-2.549z"/><path d="m162.418 23.28c-.204.918-.9 1.683-2.057 1.683-.306 0-.578-.034-.833-.119-.425.731-1.071 1.224-2.04 1.224-1.717 0-2.481-1.462-2.481-3.161 0-2.499 1.359-4.012 1.733-4.012.442 0 .782.9.34 1.189-.271.408-.781 1.037-.781 2.72 0 1.429.561 2.143 1.224 2.143.476 0 .782-.256 1.003-.646-.799-.68-1.224-1.802-1.224-3.025 0-1.071.459-1.989 1.377-1.989.799 0 1.444 1.207 1.444 2.856 0 .629-.067 1.258-.237 1.835.118.034.221.034.34.034.73 0 1.121-.561 1.224-1.224.068-.392 1.189-.46.968.492zm-3.569-.085c.034-.272.051-.527.051-.782 0-1.156-.051-2.006-.408-2.006-.187 0-.289.272-.289.799-.001.764.254 1.479.646 1.989z"/><path d="m161.449 19.931c0-.323-.067-.425-.067-.544 0-.17.203-.289.441-.289.562 0 .918.34.918.748v.765c.459-.952 1.071-1.683 1.904-1.683 1.139 0 1.41.935 1.41 1.717v3.519c0 .153 0 .782.442.782.68 0 .985-1.088 1.139-1.836.068-.357.238-.511.408-.511.271 0 .595.374.595.697 0 .018 0 .051-.017.119-.289 1.122-.969 2.651-2.431 2.651-.901 0-1.429-.73-1.429-1.598v-3.45c0-.527-.033-.969-.356-.969-.493 0-1.547 1.461-1.666 2.805v2.481c0 .323.017.73-.476.73-.34 0-.816-.118-.816-.747v-5.387z"/><path d="m167.467 16.379c0-.595.459-1.037 1.021-1.037.595 0 1.037.442 1.037 1.037 0 .561-.442 1.037-1.037 1.037-.562 0-1.021-.477-1.021-1.037zm1.411 7.785c0 .153 0 .782.442.782.68 0 .985-1.088 1.139-1.836.204-1.037 1.122-.238.985.306-.306 1.122-.969 2.651-2.431 2.651-.9 0-1.428-.73-1.428-1.598v-4.538c0-.323-.067-.425-.067-.544 0-.17.203-.289.441-.289.562 0 .918.34.918.748v4.318z"/><path d="m177.071 16.684c0-.323-.067-.425-.067-.544 0-.17.203-.289.441-.289.562 0 .952.34.952.748v6.307c0 1.632.544 2.277 1.547 2.277.952 0 1.666-.748 1.666-1.733 0-1.53-1.173-1.989-2.244-1.989-.306 0-.595-1.274-.085-1.274.799 0 2.754-.527 2.754-2.992 0-1.292-.833-2.617-2.924-2.617-2.736 0-3.842 1.802-3.842 3.875 0 1.496.612 2.023.646 2.074.187-.051.255.068.255.238 0 .306-.459 1.428-.952 1.054-.272-.255-1.241-1.275-1.241-3.264 0-3.179 2.091-5.253 5.117-5.253 2.566 0 4.249 1.445 4.249 3.858 0 1.854-.952 2.992-2.192 3.655.985.289 1.784 1.139 1.784 2.601 0 1.7-1.291 2.94-2.975 2.94-2.227 0-2.89-1.41-2.89-3.501v-6.171z"/><path d="m191.334 23.28c-.204.918-.9 1.683-2.057 1.683-.306 0-.578-.034-.833-.119-.425.731-1.071 1.224-2.04 1.224-1.717 0-2.481-1.462-2.481-3.161 0-2.499 1.359-4.012 1.733-4.012.442 0 .782.9.34 1.189-.271.408-.781 1.037-.781 2.72 0 1.429.561 2.143 1.224 2.143.476 0 .782-.256 1.003-.646-.799-.68-1.224-1.802-1.224-3.025 0-1.071.459-1.989 1.377-1.989.799 0 1.444 1.207 1.444 2.856 0 .629-.067 1.258-.237 1.835.118.034.221.034.34.034.73 0 1.121-.561 1.224-1.224.068-.392 1.189-.46.968.492zm-3.569-.085c.034-.272.051-.527.051-.782 0-1.156-.051-2.006-.408-2.006-.187 0-.289.272-.289.799-.001.764.254 1.479.646 1.989z"/><path d="m195.057 23.432c-.306.918-1.139 2.635-2.686 2.635-1.309 0-2.006-.9-2.006-2.243v-7.734c0-1.275.697-2.176 1.547-2.176 1.496 0 1.513 1.785 1.513 2.736 0 2.499-1.547 5.933-1.768 6.137v.986c0 .68.272 1.173.901 1.173.781 0 1.359-1.071 1.513-1.819.204-1.003 1.122-.239.986.305zm-3.4-2.872c.357-.714.714-2.958.714-3.893 0-1.122-.187-1.632-.459-1.632-.187 0-.255.407-.255.68z"/><path d="m201.296 23.28c-.204.918-.9 1.683-2.057 1.683-.306 0-.578-.034-.833-.119-.425.731-1.071 1.224-2.04 1.224-1.717 0-2.481-1.462-2.481-3.161 0-2.499 1.359-4.012 1.733-4.012.442 0 .782.9.341 1.189-.272.408-.782 1.037-.782 2.72 0 1.429.561 2.143 1.224 2.143.476 0 .782-.256 1.003-.646-.799-.68-1.224-1.802-1.224-3.025 0-1.071.459-1.989 1.377-1.989.799 0 1.444 1.207 1.444 2.856 0 .629-.067 1.258-.237 1.835.118.034.221.034.34.034.73 0 1.121-.561 1.224-1.224.068-.392 1.189-.46.968.492zm-3.569-.085c.034-.272.051-.527.051-.782 0-1.156-.051-2.006-.408-2.006-.187 0-.289.272-.289.799-.001.764.254 1.479.646 1.989z"/><path d="m203.455 27.07v-1.784c-.34.34-.799.611-1.394.611-1.326 0-2.023-1.122-2.023-2.566 0-2.839 1.972-4.572 4.046-4.572.459 0 .782.271.782.714 0 .289-.052.391-.222.391-.152 0-.322-.034-.492-.034-1.292 0-2.805 1.105-2.805 3.553 0 .884.374 1.394.969 1.394.68 0 1.02-.9 1.139-1.58v-1.921c0-.323-.068-.425-.068-.544 0-.17.204-.289.442-.289.561 0 .918.34.918.748v4.623c.611-.68 1.155-1.529 1.496-2.702.102-.357.237-.511.407-.511.272 0 .596.374.596.697 0 .018 0 .103-.018.17-.578 1.972-1.563 2.975-2.481 3.773v2.941c0 1.784-.901 2.413-1.768 2.413-.952 0-1.632-.866-1.632-1.954.001-1.718.986-2.585 2.108-3.571zm0 3.111v-1.819c-.544.562-.918 1.207-.918 2.227 0 .527.17.936.442.936.544-.001.476-1.021.476-1.344z"/><path d="m206.311 19.931c0-.323-.067-.425-.067-.544 0-.17.203-.289.441-.289.562 0 .918.34.918.748v.765c.459-.952 1.071-1.683 1.904-1.683 1.139 0 1.41.935 1.41 1.717v3.519c0 .153 0 .782.442.782.68 0 .985-1.088 1.139-1.836.068-.357.238-.511.408-.511.271 0 .595.374.595.697 0 .018 0 .051-.017.119-.289 1.122-.969 2.651-2.431 2.651-.901 0-1.429-.73-1.429-1.598v-3.45c0-.527-.033-.969-.356-.969-.493 0-1.547 1.461-1.666 2.805v2.481c0 .323.017.73-.476.73-.34 0-.816-.118-.816-.747v-5.387z"/><path d="m218.396 23.11c.068-.357.238-.511.408-.511.272 0 .595.374.595.697 0 .018 0 .051-.017.119-.289 1.122-.969 2.651-2.431 2.651-.595 0-1.054-.289-1.309-.696-.341.391-.816.696-1.462.696-1.326 0-2.023-1.121-2.023-2.566 0-2.839 1.972-4.572 4.046-4.572.459 0 .782.271.782.714 0 .289-.052.391-.222.391-.152 0-.322-.034-.492-.034-1.292 0-2.805 1.105-2.805 3.553 0 .884.374 1.395.969 1.395.459 0 .765-.408.952-.885v-2.617c0-.323-.068-.425-.068-.544 0-.17.204-.289.441-.289.562 0 .918.34.918.748v2.805c0 .374.17.782.578.782.682-.001.988-1.089 1.14-1.837z"/></g><path d="m116.047 14.264c0-4.958-4.131-8.977-9.227-8.977-3.599 0-6.708 2.008-8.229 4.933-1.522-2.924-4.631-4.933-8.23-4.933-5.096 0-9.227 4.02-9.227 8.977 0 .029.004.056.005.085-.046.977-.012 10.442 17.451 20.359l.001.006c.001-.001.003-.002.005-.003.001.001.003.002.005.003l.002-.006c18.44-10.473 17.444-20.444 17.444-20.444z" fill="#eb6d46"/></svg>