<svg enable-background="new 0 0 100 500" height="500" viewBox="0 0 100 500" width="100" xmlns="http://www.w3.org/2000/svg"><g stroke-miterlimit="10"><g opacity=".6"><path d="m25.911 71.374s30.199-14.805 34.411-23.547 5.443 31.655-3.025 38.997" fill="none" stroke="#7aa20d" stroke-linecap="round" stroke-linejoin="round" stroke-width="2.3993"/><path d="m56.75 88.572c.537.127 1.127.19 1.801.18 2.81-.04 7.003-.129 8.16 3.561 2.494 7.952-3.458 17.295-11.69 18.247-9.411 1.088-16.112-10.556-12.735-18.733 1.659-4.015 5.785-10.026 10.39-5.816 1.391 1.271 2.505 2.19 4.074 2.561z" fill="#ed6e46" stroke="#ed6e46" stroke-width="3.8389"/><path d="m25.612 73.586c.496.243 1.057.435 1.716.575 2.749.585 6.857 1.429 7.166 5.284.667 8.307-7.211 16.096-15.449 15.196-9.418-1.028-13.367-13.87-8.258-21.092 2.509-3.547 7.867-8.491 11.422-3.364 1.074 1.548 1.956 2.691 3.403 3.401z" fill="#ed6e46" stroke="#ed6e46" stroke-width="3.8389"/><path d="m59.811 46.722c.161-1.948 1.321-3.839 3.555-5.368 4.662-3.191 8.701-3.072 13.893-1.566.002.001 6.67 1.934 9.872-3.529-1.99 3.396-3.917 6.731-6.278 9.904-3.836 5.157-11.223 12.477-17.817 6.985-2.296-1.912-3.409-4.205-3.225-6.426z" fill="#7aa20d" stroke="#7aa20d" stroke-linecap="round" stroke-linejoin="round" stroke-width="1.2492"/></g><g opacity=".5"><path d="m15.384 176.678s9.386-20.635 7.836-26.99c-1.549-6.355 16.384 14.151 15.118 21.599" fill="none" stroke="#7aa20d" stroke-linecap="round" stroke-linejoin="round" stroke-width="1.6172"/><path d="m38.802 172.43c.334-.164.668-.384 1.015-.677 1.446-1.224 3.591-3.065 5.773-1.639 4.703 3.072 5.603 10.485 1.725 14.504-4.434 4.595-12.908 1.401-14.649-4.302-.855-2.801-1.28-7.696 2.92-7.476 1.267.067 2.24.069 3.216-.41z" fill="#ed6e46" stroke="#ed6e46" stroke-width="2.5875"/><path d="m16.175 177.957c.362-.086.737-.226 1.14-.435 1.682-.872 4.182-2.191 5.993-.317 3.903 4.04 3.136 11.467-1.538 14.525-5.344 3.496-12.897-1.499-13.329-7.447-.212-2.921.461-7.788 4.507-6.641 1.221.348 2.17.565 3.227.315z" fill="#ed6e46" stroke="#ed6e46" stroke-width="2.5875"/><path d="m22.481 149.331c-.75-1.083-.956-2.564-.447-4.317 1.061-3.657 3.215-5.324 6.563-6.763.001-.001 4.301-1.848 3.629-6.063.417 2.62.842 5.181.971 7.844.21 4.327-.502 11.3-6.286 11.264-2.015-.012-3.576-.73-4.43-1.965z" fill="#7aa20d" stroke="#7aa20d" stroke-linecap="round" stroke-linejoin="round" stroke-width=".842"/></g><g opacity=".7"><path d="m54.152 251.088s16.433-17.635 17.017-24.565 11.739 19.801 7.947 26.883" fill="none" stroke="#7aa20d" stroke-linecap="round" stroke-linejoin="round" stroke-width="1.7195"/><path d="m79.197 254.716c.392-.052.803-.161 1.252-.34 1.871-.745 4.655-1.877 6.374.297 3.704 4.686 2.108 12.463-3.16 15.206-6.023 3.135-13.487-2.947-13.316-9.285.084-3.113 1.31-8.192 5.469-6.551 1.255.495 2.236.826 3.381.673z" fill="#ed6e46" stroke="#ed6e46" stroke-width="2.7513"/><path d="m54.518 252.645c.394.036.819.021 1.296-.054 1.99-.311 4.956-.797 6.149 1.705 2.571 5.391-.711 12.62-6.457 14.125-6.569 1.72-12.496-5.868-10.923-12.01.773-3.016 3.095-7.697 6.787-5.173 1.114.763 1.997 1.302 3.148 1.407z" fill="#ed6e46" stroke="#ed6e46" stroke-width="2.7513"/><path d="m70.544 225.914c-.39-1.345-.097-2.908 1.007-4.503 2.305-3.329 5.04-4.282 8.901-4.601.002 0 4.96-.411 5.707-4.887-.464 2.782-.901 5.508-1.67 8.236-1.25 4.433-4.323 11.223-10.142 9.233-2.027-.693-3.359-1.944-3.803-3.478z" fill="#7aa20d" stroke="#7aa20d" stroke-linecap="round" stroke-linejoin="round" stroke-width=".8953"/></g><g opacity=".3"><path d="m24.746 334.572s19.978-10.604 22.62-16.572 4.343 21.159-1.19 26.277" fill="none" stroke="#7aa20d" stroke-linecap="round" stroke-linejoin="round" stroke-width="1.6135"/><path d="m45.846 345.464c.364.074.762.103 1.214.082 1.888-.088 4.704-.238 5.562 2.217 1.849 5.291-1.95 11.7-7.463 12.517-6.302.935-11.058-6.747-8.965-12.316 1.028-2.735 3.672-6.864 6.858-4.134.963.825 1.732 1.419 2.794 1.634z" fill="#ed6e46" stroke="#ed6e46" stroke-width="2.5816"/><path d="m24.593 336.065c.338.153.72.27 1.166.35 1.86.334 4.64.812 4.931 3.397.628 5.569-4.499 10.975-10.055 10.548-6.353-.487-9.285-9.033-6.007-13.999 1.61-2.438 5.104-5.877 7.605-2.508.754 1.017 1.372 1.766 2.36 2.212z" fill="#ed6e46" stroke="#ed6e46" stroke-width="2.5816"/><path d="m46.998 317.269c.066-1.313.805-2.609 2.274-3.685 3.064-2.246 5.782-2.253 9.304-1.353.001 0 4.525 1.156 6.559-2.585-1.264 2.325-2.487 4.609-4.005 6.793-2.467 3.549-7.274 8.629-11.825 5.081-1.585-1.238-2.382-2.755-2.307-4.251z" fill="#7aa20d" stroke="#7aa20d" stroke-linecap="round" stroke-linejoin="round" stroke-width=".8401"/></g><g opacity=".22"><path d="m53.92 435.414s3.813-17.464 1.565-22.106 14.977 8.191 15.237 14.143" fill="none" stroke="#7aa20d" stroke-linecap="round" stroke-linejoin="round" stroke-width="1.2752"/><path d="m71.268 428.256c.23-.182.451-.407.67-.69.912-1.183 2.26-2.958 4.178-2.221 4.135 1.588 6.058 7.153 3.735 10.895-2.656 4.278-9.718 3.221-12.006-.887-1.124-2.017-2.263-5.721 1.011-6.247.989-.159 1.739-.319 2.412-.85z" fill="#ed6e46" stroke="#ed6e46" stroke-width="2.0403"/><path d="m54.742 436.269c.265-.126.53-.296.806-.524 1.152-.951 2.86-2.383 4.567-1.238 3.679 2.467 4.319 8.32 1.223 11.452-3.54 3.582-10.19.983-11.51-3.53-.648-2.216-.936-6.08 2.373-5.867 1 .065 1.768.075 2.541-.293z" fill="#ed6e46" stroke="#ed6e46" stroke-width="2.0403"/><path d="m54.855 413.156c-.758-.711-1.162-1.818-1.061-3.254.212-2.995 1.596-4.638 3.938-6.302.001-.001 3.009-2.138 1.792-5.276.756 1.95 1.508 3.854 2.05 5.886.88 3.301 1.487 8.794-2.978 9.726-1.554.325-2.877.03-3.741-.78z" fill="#7aa20d" stroke="#7aa20d" stroke-linecap="round" stroke-linejoin="round" stroke-width=".664"/></g></g></svg>